<mxfile host="app.diagrams.net" agent="Mozilla/5.0 (Windows NT 10.0; Win64; x64) AppleWebKit/537.36 (KHTML, like Gecko) Chrome/129.0.0.0 Safari/537.36" version="24.8.0">
  <diagram name="PÃ¡gina-1" id="DKQFyIsMj1eod74m2C_w">
    <mxGraphModel dx="1014" dy="554" grid="1" gridSize="10" guides="1" tooltips="1" connect="1" arrows="1" fold="1" page="1" pageScale="1" pageWidth="827" pageHeight="1169" math="0" shadow="0">
      <root>
        <mxCell id="0" />
        <mxCell id="1" parent="0" />
        <mxCell id="Pq3PNO85xbKXSgipGfG3-3" value="&lt;font style=&quot;vertical-align: inherit;&quot;&gt;&lt;font style=&quot;vertical-align: inherit;&quot;&gt;FIM&lt;/font&gt;&lt;/font&gt;" style="ellipse;whiteSpace=wrap;html=1;" vertex="1" parent="1">
          <mxGeometry x="339" y="820" width="150" height="60" as="geometry" />
        </mxCell>
        <mxCell id="Pq3PNO85xbKXSgipGfG3-6" style="edgeStyle=orthogonalEdgeStyle;rounded=0;orthogonalLoop=1;jettySize=auto;html=1;entryX=0.5;entryY=0;entryDx=0;entryDy=0;" edge="1" parent="1" source="Pq3PNO85xbKXSgipGfG3-4" target="Pq3PNO85xbKXSgipGfG3-5">
          <mxGeometry relative="1" as="geometry" />
        </mxCell>
        <mxCell id="Pq3PNO85xbKXSgipGfG3-4" value="&lt;font style=&quot;vertical-align: inherit;&quot;&gt;&lt;font style=&quot;vertical-align: inherit;&quot;&gt;INICIO&lt;/font&gt;&lt;/font&gt;" style="ellipse;whiteSpace=wrap;html=1;" vertex="1" parent="1">
          <mxGeometry x="339" y="30" width="150" height="60" as="geometry" />
        </mxCell>
        <mxCell id="Pq3PNO85xbKXSgipGfG3-11" style="edgeStyle=orthogonalEdgeStyle;rounded=0;orthogonalLoop=1;jettySize=auto;html=1;exitX=0.5;exitY=1;exitDx=0;exitDy=0;" edge="1" parent="1" source="Pq3PNO85xbKXSgipGfG3-5">
          <mxGeometry relative="1" as="geometry">
            <mxPoint x="414" y="220" as="targetPoint" />
          </mxGeometry>
        </mxCell>
        <mxCell id="Pq3PNO85xbKXSgipGfG3-25" style="edgeStyle=orthogonalEdgeStyle;rounded=0;orthogonalLoop=1;jettySize=auto;html=1;" edge="1" parent="1" source="Pq3PNO85xbKXSgipGfG3-5">
          <mxGeometry relative="1" as="geometry">
            <mxPoint x="710" y="700" as="targetPoint" />
          </mxGeometry>
        </mxCell>
        <mxCell id="Pq3PNO85xbKXSgipGfG3-5" value="&lt;font style=&quot;vertical-align: inherit;&quot;&gt;&lt;font style=&quot;vertical-align: inherit;&quot;&gt;&lt;font style=&quot;vertical-align: inherit;&quot;&gt;&lt;font style=&quot;vertical-align: inherit; font-size: 11px;&quot;&gt;LEITURA VARIAVEL NUMERO&lt;/font&gt;&lt;/font&gt;&lt;/font&gt;&lt;/font&gt;" style="html=1;strokeWidth=2;shape=manualInput;whiteSpace=wrap;rounded=1;size=26;arcSize=11;" vertex="1" parent="1">
          <mxGeometry x="356" y="120" width="116" height="70" as="geometry" />
        </mxCell>
        <mxCell id="Pq3PNO85xbKXSgipGfG3-15" style="edgeStyle=orthogonalEdgeStyle;rounded=0;orthogonalLoop=1;jettySize=auto;html=1;exitX=0.5;exitY=1;exitDx=0;exitDy=0;exitPerimeter=0;" edge="1" parent="1" source="Pq3PNO85xbKXSgipGfG3-7">
          <mxGeometry relative="1" as="geometry">
            <mxPoint x="414" y="810" as="targetPoint" />
          </mxGeometry>
        </mxCell>
        <mxCell id="Pq3PNO85xbKXSgipGfG3-23" style="edgeStyle=orthogonalEdgeStyle;rounded=0;orthogonalLoop=1;jettySize=auto;html=1;exitX=1;exitY=0.5;exitDx=0;exitDy=0;exitPerimeter=0;" edge="1" parent="1" source="Pq3PNO85xbKXSgipGfG3-7">
          <mxGeometry relative="1" as="geometry">
            <mxPoint x="550" y="730" as="targetPoint" />
          </mxGeometry>
        </mxCell>
        <mxCell id="Pq3PNO85xbKXSgipGfG3-7" value="&lt;font style=&quot;font-size: 11px;&quot;&gt;SE NUMERO==4&lt;/font&gt;" style="strokeWidth=2;html=1;shape=mxgraph.flowchart.decision;whiteSpace=wrap;" vertex="1" parent="1">
          <mxGeometry x="364" y="680" width="100" height="100" as="geometry" />
        </mxCell>
        <mxCell id="Pq3PNO85xbKXSgipGfG3-12" style="edgeStyle=orthogonalEdgeStyle;rounded=0;orthogonalLoop=1;jettySize=auto;html=1;exitX=0.5;exitY=1;exitDx=0;exitDy=0;exitPerimeter=0;" edge="1" parent="1" source="Pq3PNO85xbKXSgipGfG3-8">
          <mxGeometry relative="1" as="geometry">
            <mxPoint x="414" y="370" as="targetPoint" />
          </mxGeometry>
        </mxCell>
        <mxCell id="Pq3PNO85xbKXSgipGfG3-20" style="edgeStyle=orthogonalEdgeStyle;rounded=0;orthogonalLoop=1;jettySize=auto;html=1;exitX=1;exitY=0.5;exitDx=0;exitDy=0;exitPerimeter=0;" edge="1" parent="1" source="Pq3PNO85xbKXSgipGfG3-8">
          <mxGeometry relative="1" as="geometry">
            <mxPoint x="540" y="280" as="targetPoint" />
          </mxGeometry>
        </mxCell>
        <mxCell id="Pq3PNO85xbKXSgipGfG3-8" value="&lt;font style=&quot;vertical-align: inherit;&quot;&gt;&lt;font style=&quot;vertical-align: inherit; font-size: 11px;&quot;&gt;SE NUMERO==1&lt;/font&gt;&lt;/font&gt;" style="strokeWidth=2;html=1;shape=mxgraph.flowchart.decision;whiteSpace=wrap;" vertex="1" parent="1">
          <mxGeometry x="364" y="230" width="100" height="100" as="geometry" />
        </mxCell>
        <mxCell id="Pq3PNO85xbKXSgipGfG3-13" style="edgeStyle=orthogonalEdgeStyle;rounded=0;orthogonalLoop=1;jettySize=auto;html=1;exitX=0.5;exitY=1;exitDx=0;exitDy=0;exitPerimeter=0;" edge="1" parent="1" source="Pq3PNO85xbKXSgipGfG3-9">
          <mxGeometry relative="1" as="geometry">
            <mxPoint x="414" y="520" as="targetPoint" />
          </mxGeometry>
        </mxCell>
        <mxCell id="Pq3PNO85xbKXSgipGfG3-21" style="edgeStyle=orthogonalEdgeStyle;rounded=0;orthogonalLoop=1;jettySize=auto;html=1;exitX=1;exitY=0.5;exitDx=0;exitDy=0;exitPerimeter=0;" edge="1" parent="1" source="Pq3PNO85xbKXSgipGfG3-9">
          <mxGeometry relative="1" as="geometry">
            <mxPoint x="550" y="430" as="targetPoint" />
          </mxGeometry>
        </mxCell>
        <mxCell id="Pq3PNO85xbKXSgipGfG3-9" value="&lt;font style=&quot;vertical-align: inherit;&quot;&gt;&lt;font style=&quot;vertical-align: inherit; font-size: 11px;&quot;&gt;SE NUMERO==2&lt;/font&gt;&lt;/font&gt;" style="strokeWidth=2;html=1;shape=mxgraph.flowchart.decision;whiteSpace=wrap;" vertex="1" parent="1">
          <mxGeometry x="364" y="380" width="100" height="100" as="geometry" />
        </mxCell>
        <mxCell id="Pq3PNO85xbKXSgipGfG3-14" style="edgeStyle=orthogonalEdgeStyle;rounded=0;orthogonalLoop=1;jettySize=auto;html=1;exitX=0.5;exitY=1;exitDx=0;exitDy=0;exitPerimeter=0;" edge="1" parent="1" source="Pq3PNO85xbKXSgipGfG3-10">
          <mxGeometry relative="1" as="geometry">
            <mxPoint x="414" y="670" as="targetPoint" />
          </mxGeometry>
        </mxCell>
        <mxCell id="Pq3PNO85xbKXSgipGfG3-22" style="edgeStyle=orthogonalEdgeStyle;rounded=0;orthogonalLoop=1;jettySize=auto;html=1;exitX=1;exitY=0.5;exitDx=0;exitDy=0;exitPerimeter=0;" edge="1" parent="1" source="Pq3PNO85xbKXSgipGfG3-10">
          <mxGeometry relative="1" as="geometry">
            <mxPoint x="550" y="580" as="targetPoint" />
          </mxGeometry>
        </mxCell>
        <mxCell id="Pq3PNO85xbKXSgipGfG3-10" value="&lt;font style=&quot;vertical-align: inherit;&quot;&gt;&lt;font style=&quot;vertical-align: inherit; font-size: 11px;&quot;&gt;SE NUMERO==3&lt;/font&gt;&lt;/font&gt;" style="strokeWidth=2;html=1;shape=mxgraph.flowchart.decision;whiteSpace=wrap;" vertex="1" parent="1">
          <mxGeometry x="364" y="530" width="100" height="100" as="geometry" />
        </mxCell>
        <mxCell id="Pq3PNO85xbKXSgipGfG3-28" style="edgeStyle=orthogonalEdgeStyle;rounded=0;orthogonalLoop=1;jettySize=auto;html=1;exitX=1;exitY=0.5;exitDx=0;exitDy=0;exitPerimeter=0;" edge="1" parent="1" source="Pq3PNO85xbKXSgipGfG3-16">
          <mxGeometry relative="1" as="geometry">
            <mxPoint x="680" y="730" as="targetPoint" />
          </mxGeometry>
        </mxCell>
        <mxCell id="Pq3PNO85xbKXSgipGfG3-16" value="IMPRIMA SAIR" style="shape=display;whiteSpace=wrap;html=1;" vertex="1" parent="1">
          <mxGeometry x="560" y="710" width="80" height="40" as="geometry" />
        </mxCell>
        <mxCell id="Pq3PNO85xbKXSgipGfG3-17" value="IMPRIMA EXTRATO" style="shape=display;whiteSpace=wrap;html=1;" vertex="1" parent="1">
          <mxGeometry x="560" y="410" width="80" height="40" as="geometry" />
        </mxCell>
        <mxCell id="Pq3PNO85xbKXSgipGfG3-27" style="edgeStyle=orthogonalEdgeStyle;rounded=0;orthogonalLoop=1;jettySize=auto;html=1;" edge="1" parent="1" source="Pq3PNO85xbKXSgipGfG3-18">
          <mxGeometry relative="1" as="geometry">
            <mxPoint x="730" y="730" as="targetPoint" />
            <Array as="points">
              <mxPoint x="761" y="580" />
            </Array>
          </mxGeometry>
        </mxCell>
        <mxCell id="Pq3PNO85xbKXSgipGfG3-18" value="IMPRIMA SAQUE" style="shape=display;whiteSpace=wrap;html=1;" vertex="1" parent="1">
          <mxGeometry x="560" y="560" width="80" height="40" as="geometry" />
        </mxCell>
        <mxCell id="Pq3PNO85xbKXSgipGfG3-19" value="IMPRIMA SALDO" style="shape=display;whiteSpace=wrap;html=1;" vertex="1" parent="1">
          <mxGeometry x="550" y="260" width="80" height="40" as="geometry" />
        </mxCell>
        <mxCell id="Pq3PNO85xbKXSgipGfG3-29" style="edgeStyle=orthogonalEdgeStyle;rounded=0;orthogonalLoop=1;jettySize=auto;html=1;exitX=0.5;exitY=1;exitDx=0;exitDy=0;" edge="1" parent="1" source="Pq3PNO85xbKXSgipGfG3-24">
          <mxGeometry relative="1" as="geometry">
            <mxPoint x="500" y="850" as="targetPoint" />
            <Array as="points">
              <mxPoint x="705" y="803" />
              <mxPoint x="706" y="803" />
            </Array>
          </mxGeometry>
        </mxCell>
        <mxCell id="Pq3PNO85xbKXSgipGfG3-24" value="" style="ellipse;whiteSpace=wrap;html=1;aspect=fixed;" vertex="1" parent="1">
          <mxGeometry x="690" y="715" width="30" height="30" as="geometry" />
        </mxCell>
      </root>
    </mxGraphModel>
  </diagram>
</mxfile>
